<svg data-v-fde0c5aa="" xmlns="http://www.w3.org/2000/svg" viewBox="0 0 300 300" class="iconAbove"><!----><defs data-v-fde0c5aa=""><!----></defs><rect data-v-fde0c5aa="" fill="#231B6E" x="0" y="0" width="300px" height="300px" class="logo-background-square"></rect><defs data-v-fde0c5aa=""><!----></defs><g data-v-fde0c5aa="" id="54547000-11eb-4085-ab4e-48cb1736918b" fill="#ffffff" transform="matrix(4.954623442039573,0,0,4.954623442039573,60.61858886483144,177.45597303036197)"><path d="M4.49 14.71L3.43 14.71L3.18 12.78L1.46 12.78L1.20 14.71L0.17 14.71L1.75 3.19L3.00 3.19L4.49 14.71ZM1.58 11.80L3.05 11.80L3.05 11.80Q2.87 10.32 2.69 8.87L2.69 8.87L2.69 8.87Q2.51 7.42 2.34 5.89L2.34 5.89L2.34 5.89Q2.16 7.42 1.97 8.87L1.97 8.87L1.97 8.87Q1.78 10.32 1.58 11.80L1.58 11.80ZM10.35 14.71L9.39 14.71L9.39 7.50L9.39 7.50Q9.39 6.86 8.90 6.86L8.90 6.86L8.90 6.86Q8.71 6.86 8.54 6.99L8.54 6.99L8.54 6.99Q8.37 7.11 8.26 7.39L8.26 7.39L8.26 14.71L7.29 14.71L7.29 7.50L7.29 7.50Q7.29 6.86 6.80 6.86L6.80 6.86L6.80 6.86Q6.62 6.86 6.45 6.99L6.45 6.99L6.45 6.99Q6.29 7.11 6.17 7.39L6.17 7.39L6.17 14.71L5.21 14.71L5.21 6.05L6.02 6.05L6.02 6.05Q6.06 6.37 6.06 6.69L6.06 6.69L6.06 6.69Q6.24 6.33 6.54 6.12L6.54 6.12L6.54 6.12Q6.83 5.91 7.20 5.91L7.20 5.91L7.20 5.91Q7.94 5.91 8.13 6.66L8.13 6.66L8.13 6.66Q8.32 6.31 8.62 6.11L8.62 6.11L8.62 6.11Q8.92 5.91 9.30 5.91L9.30 5.91L9.30 5.91Q9.84 5.91 10.09 6.30L10.09 6.30L10.09 6.30Q10.35 6.69 10.35 7.49L10.35 7.49L10.35 14.71ZM13.68 13.17L13.68 7.71L13.68 7.71Q13.68 7.31 13.53 7.15L13.53 7.15L13.53 7.15Q13.38 6.99 13.06 6.99L13.06 6.99L13.06 6.99Q12.82 6.99 12.62 7.13L12.62 7.13L12.62 7.13Q12.42 7.27 12.32 7.55L12.32 7.55L12.32 13.31L12.32 13.31Q12.42 13.59 12.62 13.73L12.62 13.73L12.62 13.73Q12.82 13.87 13.06 13.87L13.06 13.87L13.06 13.87Q13.38 13.87 13.53 13.71L13.53 13.71L13.53 13.71Q13.68 13.55 13.68 13.17L13.68 13.17ZM12.32 16.66L11.35 16.66L11.35 6.05L12.17 6.05L12.17 6.05Q12.21 6.37 12.21 6.71L12.21 6.71L12.21 6.71Q12.36 6.34 12.64 6.15L12.64 6.15L12.64 6.15Q12.92 5.96 13.40 5.96L13.40 5.96L13.40 5.96Q14 5.96 14.32 6.36L14.32 6.36L14.32 6.36Q14.63 6.75 14.63 7.59L14.63 7.59L14.63 13.26L14.63 13.26Q14.63 14.14 14.34 14.49L14.34 14.49L14.34 14.49Q14.04 14.84 13.37 14.84L13.37 14.84L13.37 14.84Q13.02 14.84 12.75 14.69L12.75 14.69L12.75 14.69Q12.47 14.55 12.32 14.31L12.32 14.31L12.32 16.66ZM16.56 14.71L15.60 14.71L15.60 3.19L16.56 3.19L16.56 14.71ZM19.66 9.77L19.66 7.69L19.66 7.69Q19.66 6.92 19.01 6.92L19.01 6.92L19.01 6.92Q18.41 6.92 18.41 7.69L18.41 7.69L18.41 9.77L19.66 9.77ZM19.66 13.09L19.66 11.19L20.57 11.19L20.57 13.09L20.57 13.09Q20.57 14.84 19.01 14.84L19.01 14.84L19.01 14.84Q17.51 14.84 17.51 13.09L17.51 13.09L17.51 7.69L17.51 7.69Q17.51 6.80 17.90 6.36L17.90 6.36L17.90 6.36Q18.28 5.91 19.01 5.91L19.01 5.91L19.01 5.91Q20.57 5.91 20.57 7.69L20.57 7.69L20.57 10.47L18.41 10.47L18.41 13.09L18.41 13.09Q18.41 13.86 19.01 13.86L19.01 13.86L19.01 13.86Q19.66 13.86 19.66 13.09L19.66 13.09ZM23.98 12.88L23.98 10.49L24.95 10.49L24.95 12.87L24.95 12.87Q24.95 13.87 24.55 14.36L24.55 14.36L24.55 14.36Q24.15 14.84 23.27 14.84L23.27 14.84L23.27 14.84Q21.43 14.84 21.43 12.89L21.43 12.89L21.43 5.05L21.43 5.05Q21.43 3.07 23.27 3.07L23.27 3.07L23.27 3.07Q24.95 3.07 24.95 5.03L24.95 5.03L24.95 7.07L23.98 7.07L23.98 5.04L23.98 5.04Q23.98 4.58 23.83 4.36L23.83 4.36L23.83 4.36Q23.67 4.14 23.27 4.14L23.27 4.14L23.27 4.14Q22.51 4.14 22.51 5.04L22.51 5.04L22.51 12.88L22.51 12.88Q22.51 13.79 23.27 13.79L23.27 13.79L23.27 13.79Q23.66 13.79 23.82 13.57L23.82 13.57L23.82 13.57Q23.98 13.34 23.98 12.88L23.98 12.88ZM29.08 14.71L28.11 14.71L28.11 7.56L28.11 7.56Q28.11 7.18 27.99 7.02L27.99 7.02L27.99 7.02Q27.86 6.86 27.55 6.86L27.55 6.86L27.55 6.86Q27.34 6.86 27.13 6.99L27.13 6.99L27.13 6.99Q26.92 7.11 26.81 7.39L26.81 7.39L26.81 14.71L25.84 14.71L25.84 3.19L26.81 3.19L26.81 6.54L26.81 6.54Q27.01 6.26 27.30 6.08L27.30 6.08L27.30 6.08Q27.59 5.91 27.96 5.91L27.96 5.91L27.96 5.91Q28.55 5.91 28.81 6.29L28.81 6.29L28.81 6.29Q29.08 6.66 29.08 7.50L29.08 7.50L29.08 14.71ZM33.10 14.71L32.21 14.71L32.21 14.71Q32.16 14.53 32.16 14.20L32.16 14.20L32.16 14.20Q31.81 14.84 31.12 14.84L31.12 14.84L31.12 14.84Q30.53 14.84 30.21 14.52L30.21 14.52L30.21 14.52Q29.88 14.20 29.88 13.47L29.88 13.47L29.88 12.19L29.88 12.19Q29.88 11.56 30.05 11.14L30.05 11.14L30.05 11.14Q30.23 10.71 30.53 10.42L30.53 10.42L30.53 10.42Q30.83 10.12 31.23 9.92L31.23 9.92L31.23 9.92Q31.64 9.72 32.10 9.52L32.10 9.52L32.10 7.63L32.10 7.63Q32.10 7.27 31.97 7.07L31.97 7.07L31.97 7.07Q31.84 6.87 31.47 6.87L31.47 6.87L31.47 6.87Q31.09 6.87 30.97 7.07L30.97 7.07L30.97 7.07Q30.84 7.27 30.84 7.63L30.84 7.63L30.84 9.45L29.99 9.45L29.99 7.62L29.99 7.62Q29.99 6.76 30.35 6.34L30.35 6.34L30.35 6.34Q30.70 5.91 31.50 5.91L31.50 5.91L31.50 5.91Q33.03 5.91 33.03 7.62L33.03 7.62L33.03 13.72L33.03 13.72Q33.03 14.03 33.04 14.29L33.04 14.29L33.04 14.29Q33.05 14.56 33.10 14.71L33.10 14.71ZM32.10 13.36L32.10 10.29L32.10 10.29Q31.68 10.44 31.42 10.63L31.42 10.63L31.42 10.63Q31.16 10.81 31.03 11.04L31.03 11.04L31.03 11.04Q30.90 11.27 30.86 11.57L30.86 11.57L30.86 11.57Q30.81 11.87 30.81 12.26L30.81 12.26L30.81 13.19L30.81 13.19Q30.81 13.90 31.47 13.90L31.47 13.90L31.47 13.90Q31.68 13.90 31.86 13.78L31.86 13.78L31.86 13.78Q32.03 13.65 32.10 13.36L32.10 13.36ZM35.91 14L35.91 14.77L35.91 14.77Q35.84 14.80 35.71 14.82L35.71 14.82L35.71 14.82Q35.57 14.84 35.46 14.84L35.46 14.84L35.46 14.84Q34.69 14.84 34.31 14.36L34.31 14.36L34.31 14.36Q33.94 13.89 33.94 13.05L33.94 13.05L33.94 6.90L33.53 6.90L33.53 6.05L33.94 6.05L33.94 3.30L34.90 3.30L34.90 6.05L35.88 6.05L35.88 6.90L34.90 6.90L34.90 13.05L34.90 13.05Q34.90 13.58 35.09 13.80L35.09 13.80L35.09 13.80Q35.28 14.01 35.73 14.01L35.73 14.01L35.73 14.01Q35.77 14.01 35.82 14.01L35.82 14.01L35.82 14.01Q35.87 14.01 35.91 14L35.91 14Z"></path></g><defs data-v-fde0c5aa=""><!----></defs><g data-v-fde0c5aa="" id="857ca5a0-0aa6-4dc3-a74e-c0d2d262226e" stroke="none" fill="#1DC7DA" transform="matrix(4.208333333333333,0,0,4.208333333333333,82.66666666666667,40)"><path d="M15.965 16.258l.707-.707 10.39 10.39-.707.707z"></path><path d="M4.935 26.357L26.018 5.274l.707.707L5.642 27.065z"></path><path d="M31 1v4.194h-4.194V1H31m1-1h-6.194v6.194H32V0zM31 26.806V31h-4.194v-4.194H31m1-1h-6.194V32H32v-6.194zM5.194 26.806V31H1v-4.194h4.194m1-1H0V32h6.194v-6.194z"></path></g><!----></svg>